# Blender v2.78 (sub 0) OBJ File: ''
# www.blender.org
mtllib model.mtl
o model
v 0.039956 0.037329 -0.009475
v 0.047689 0.047390 -0.009588
v 0.047718 0.037354 -0.009685
v 0.033311 0.047307 -0.005314
v 0.039927 0.047366 -0.009377
v 0.033340 0.037271 -0.005412
v 0.029612 0.047230 0.001512
v 0.029641 0.037193 0.001415
v 0.029823 0.047155 0.009274
v 0.033915 0.037066 0.015792
v 0.029852 0.037119 0.009176
v 0.040742 0.037050 0.019491
v 0.033886 0.047103 0.015890
v 0.048475 0.047111 0.019378
v 0.040713 0.047086 0.019589
v 0.055121 0.037133 0.015218
v 0.048504 0.037075 0.019281
v 0.058819 0.037210 0.008391
v 0.055091 0.047170 0.015315
v 0.058579 0.047322 0.000727
v 0.058790 0.047247 0.008488
v 0.058608 0.037285 0.000630
v 0.054516 0.047374 -0.005889
v 0.054545 0.037338 -0.005987
v 0.072783 0.037590 -0.026487
v 0.079370 0.047685 -0.030453
v 0.079399 0.037648 -0.030550
v 0.069084 0.037513 -0.019661
v 0.072754 0.047626 -0.026390
v 0.069295 0.037438 -0.011899
v 0.069055 0.047549 -0.019563
v 0.073329 0.047422 -0.005185
v 0.069266 0.047474 -0.011802
v 0.080185 0.037369 -0.001584
v 0.073358 0.037385 -0.005283
v 0.087918 0.047430 -0.001697
v 0.080156 0.047406 -0.001487
v 0.087947 0.037394 -0.001795
v 0.094534 0.047489 -0.005760
v 0.098262 0.037530 -0.012684
v 0.094563 0.037453 -0.005858
v 0.098022 0.047641 -0.020348
v 0.098233 0.047566 -0.012587
v 0.093988 0.037657 -0.027062
v 0.098051 0.037604 -0.020446
v 0.087161 0.037673 -0.030760
v 0.093959 0.047694 -0.026964
v 0.087132 0.047710 -0.030663
v -0.122732 -0.016593 -0.265513
v -0.113479 0.042259 0.124552
v -0.123356 0.043405 -0.265321
v 0.116805 -0.015300 0.108546
v 0.125038 0.044935 0.063500
v 0.116182 0.044698 0.108738
v -0.072690 -0.017318 0.123344
v 0.076450 0.044249 0.119747
v -0.079171 -0.016136 -0.266615
v -0.112751 -0.027737 0.124328
v -0.112855 -0.017738 0.124360
v 0.125662 -0.015063 0.063308
v 0.116554 0.045919 -0.271391
v 0.083792 -0.015672 0.117693
v 0.083896 -0.025671 0.117661
v -0.072586 -0.027316 0.123312
v 0.077074 -0.015748 0.119555
v 0.077393 -0.014682 -0.212360
v -0.078203 -0.016312 -0.208398
v -0.072586 -0.027316 0.123312
v -0.078099 -0.026311 -0.208431
v -0.122628 -0.026591 -0.265545
v -0.079067 -0.026135 -0.266647
v 0.077178 -0.025747 0.119522
v 0.083896 -0.025671 0.117661
v -0.078099 -0.026311 -0.208431
v 0.077497 -0.024681 -0.212392
v 0.116909 -0.025299 0.108514
v 0.117282 -0.024077 -0.271615
v 0.125766 -0.025062 0.063276
v 0.076369 -0.024506 -0.270580
v 0.117178 -0.014079 -0.271583
v 0.076265 -0.014507 -0.270548
v 0.077497 -0.024681 -0.212392
v -0.039053 0.038982 0.063761
v -0.035007 0.048975 0.070178
v -0.039105 0.048966 0.062790
v -0.014813 0.038627 0.049724
v -0.010767 0.048621 0.056141
v -0.010715 0.038636 0.057112
v -0.034955 0.038991 0.071149
v -0.014865 0.048612 0.048754
v 0.000086 0.038384 0.062208
v 0.003788 0.048361 0.068855
v -0.000435 0.048380 0.061538
v 0.024066 0.039549 0.047774
v 0.027768 0.049526 0.054421
v 0.028289 0.039531 0.055092
v 0.004309 0.038365 0.069525
v 0.023545 0.049545 0.047104
v -0.065887 -0.001219 -0.211389
v -0.063330 0.048133 -0.091323
v -0.066972 0.048348 -0.211268
v 0.054029 0.001414 -0.215026
v 0.056586 0.050767 -0.094959
v 0.057671 0.001199 -0.095081
v -0.062245 -0.001434 -0.091444
v 0.052944 0.050981 -0.214904
v -0.081408 0.049821 -0.016576
v -0.080828 0.036854 0.003291
v -0.080865 0.049628 0.003415
v -0.030908 0.037012 0.001938
v -0.031487 0.049979 -0.017929
v -0.030945 0.049786 0.002062
v -0.031450 0.037205 -0.018054
v -0.081371 0.037047 -0.016701
v -0.065495 0.049531 0.017973
v -0.045466 0.036821 0.017307
v -0.045503 0.049595 0.017431
v -0.046820 0.037302 -0.032611
v -0.066850 0.050012 -0.031945
v -0.046857 0.050076 -0.032487
v -0.066813 0.037239 -0.032069
v -0.065458 0.036757 0.017849
v -0.103064 0.046606 -0.223382
v -0.098057 0.036026 -0.073561
v -0.098268 0.045148 -0.073465
v 0.071714 0.040005 -0.078954
v 0.100595 0.050095 -0.107009
v 0.071503 0.049128 -0.078858
v 0.096880 0.042166 -0.229822
v 0.096669 0.051288 -0.229726
v -0.102853 0.037483 -0.223477
v 0.100804 0.040973 -0.107164
vn -0.9996 -0.0105 0.0253
vn 0.9813 0.0096 0.1922
vn 0.0253 -0.0029 0.9997
vn -0.0253 0.0029 -0.9997
vn -0.0104 0.9999 0.0032
vn 0.9996 0.0105 -0.0253
vn 0.2670 -0.0003 0.9637
vn 0.0253 -0.0030 0.9997
vn 0.0104 -0.9999 -0.0032
vn 0.9998 0.0105 -0.0166
vn 0.2671 -0.0004 0.9637
vn 0.9998 0.0105 -0.0194
vn -0.0255 0.0030 -0.9997
vn -0.0255 0.0029 -0.9997
vn -0.9998 -0.0105 0.0166
vn -0.9998 -0.0105 0.0193
vn -0.9998 -0.0105 0.0194
vn -0.9993 -0.0219 0.0303
vn 0.9993 0.0219 -0.0303
vn 0.0303 -0.0018 0.9995
vn 0.0304 -0.0018 0.9995
vn -0.0303 0.0018 -0.9995
vn -0.0304 0.0018 -0.9995
vn -0.0219 0.9998 0.0025
vn -0.0219 0.9998 0.0024
vn 0.0219 -0.9998 -0.0025
vn -0.9996 -0.0032 0.0271
vn 0.9996 0.0032 -0.0271
vn 0.0271 -0.0096 0.9996
vn -0.0271 0.0097 -0.9996
vn -0.0029 0.9999 0.0097
vn 0.0029 -0.9999 -0.0097
vn -0.0271 0.0096 -0.9996
vn -0.9992 -0.0234 0.0317
vn 0.6950 0.0054 0.7190
vn 0.6956 0.0020 0.7184
vn 0.6949 0.0062 0.7191
vn 0.0320 -0.0098 0.9994
vn -0.0320 0.0098 -0.9994
vn -0.0320 0.0097 -0.9994
vn -0.0231 0.9997 0.0105
vn 0.0231 -0.9997 -0.0105
vn 0.9992 0.0234 -0.0317
vn 0.6957 0.0014 0.7183
vn -0.8737 0.0426 0.4846
vn 0.8737 -0.0426 -0.4846
vn 0.8737 -0.0425 -0.4846
vn 0.5002 0.0864 0.8616
vn -0.5002 -0.0863 -0.8616
vn -0.5002 -0.0864 -0.8616
vn 0.0105 0.9999 -0.0071
vn -0.0105 -0.9999 0.0071
vn -0.8661 -0.0116 0.4998
vn 0.8661 0.0116 -0.4998
vn 0.5109 0.0840 0.8555
vn 0.5109 0.0840 0.8556
vn -0.5109 -0.0840 -0.8555
vn -0.0349 0.9991 0.0227
vn 0.0349 -0.9991 -0.0227
vn 0.0349 -0.9991 -0.0226
vn 0.5109 0.0841 0.8555
vn -0.5233 0.0068 -0.8521
vn -0.8792 0.0021 -0.4764
vn -0.8521 -0.0076 0.5233
vn -0.4764 -0.0100 0.8792
vn 0.0272 -0.0097 0.9996
vn 0.5233 -0.0067 0.8521
vn 0.8793 -0.0020 0.4763
vn 0.8793 -0.0023 0.4763
vn 0.8522 0.0075 -0.5232
vn 0.8521 0.0075 -0.5233
vn 0.4763 0.0099 -0.8792
vn 0.4763 0.0100 -0.8792
vn -0.5233 0.0067 -0.8521
vn -0.8522 -0.0075 0.5232
vn -0.4763 -0.0099 0.8792
vn 0.5233 -0.0068 0.8521
vn 0.8792 -0.0021 0.4764
vn 0.8521 0.0076 -0.5233
vn -0.0272 0.0097 -0.9996
vn 0.5233 -0.0070 0.8521
vn 0.8522 0.0076 -0.5232
vn 0.4764 0.0099 -0.8792
vn -0.0030 0.9999 0.0099
vn -0.0030 0.9999 0.0097
vn -0.0027 0.9999 0.0097
vn 0.0030 -0.9999 -0.0098
vn 0.0029 -0.9999 -0.0098
vn 0.0030 -1.0000 -0.0094
vn 0.0030 -0.9999 -0.0097
vn -0.0029 0.9999 0.0098
vn -0.0028 0.9999 0.0097
vn -0.0029 0.9999 0.0096
vn -0.0028 1.0000 0.0096
vn 0.0028 -1.0000 -0.0095
vn 0.0028 -0.9999 -0.0097
vn 0.0028 -0.9999 -0.0098
usemtl mat21
s 1
f 49//1 50//1 51//1
f 52//2 53//2 54//2
f 55//3 56//3 50//3
f 57//4 49//4 51//4
f 53//5 51//5 50//5
f 58//3 55//3 59//3
f 60//6 61//6 53//6
f 62//7 54//7 56//7
f 63//7 52//7 62//7
f 64//3 65//8 55//3
f 57//9 66//9 67//9
f 68//10 67//10 55//10
f 69//10 57//10 67//10
f 70//4 57//4 71//4
f 58//1 49//1 70//1
f 71//9 69//9 70//9
f 72//7 62//7 65//11
f 73//12 66//12 62//12
f 74//13 66//14 75//14
f 64//15 67//15 74//15
f 75//9 72//9 74//9
f 76//2 60//2 52//2
f 77//6 60//6 78//6
f 79//4 80//4 77//4
f 79//16 66//17 81//16
f 63//17 66//17 82//17
f 77//9 78//9 82//9
f 49//1 59//1 50//1
f 52//2 60//2 53//2
f 50//3 59//3 55//3
f 55//3 65//8 56//3
f 51//4 61//4 57//4
f 81//4 57//4 61//4
f 61//4 80//4 81//4
f 50//5 56//5 53//5
f 54//5 53//5 56//5
f 61//5 51//5 53//5
f 58//3 68//3 55//3
f 60//6 80//6 61//6
f 56//7 65//11 62//7
f 62//7 52//7 54//7
f 63//7 76//7 52//7
f 64//3 72//8 65//8
f 57//9 81//9 66//9
f 68//10 69//10 67//10
f 69//10 71//10 57//10
f 70//4 49//4 57//4
f 58//1 59//1 49//1
f 58//9 70//9 69//9
f 69//9 68//9 58//9
f 72//7 73//7 62//7
f 73//12 75//12 66//12
f 74//13 67//13 66//14
f 64//15 55//15 67//15
f 64//9 74//9 72//9
f 75//9 73//9 72//9
f 76//2 78//2 60//2
f 77//6 80//6 60//6
f 79//4 81//4 80//4
f 79//16 82//17 66//17
f 63//17 62//17 66//17
f 63//9 82//9 78//9
f 79//9 77//9 82//9
f 78//9 76//9 63//9
usemtl mat12
f 99//18 100//18 101//18
f 102//19 103//19 104//19
f 104//20 100//21 105//21
f 102//22 101//23 106//22
f 106//24 100//24 103//25
f 99//26 104//26 105//26
f 99//18 105//18 100//18
f 102//19 106//19 103//19
f 104//20 103//20 100//21
f 102//22 99//23 101//23
f 106//24 101//24 100//24
f 99//26 102//26 104//26
usemtl mat23
f 107//27 108//27 109//27
f 110//28 111//28 112//28
f 110//29 109//29 108//29
f 113//30 107//30 111//30
f 112//31 107//31 109//31
f 114//32 110//32 108//32
f 115//29 116//29 117//29
f 118//33 119//33 120//33
f 118//28 117//28 116//28
f 121//27 115//27 119//27
f 119//31 117//31 120//31
f 122//32 118//32 116//32
f 107//27 114//27 108//27
f 110//28 113//28 111//28
f 110//29 112//29 109//29
f 113//30 114//30 107//30
f 112//31 111//31 107//31
f 114//32 113//32 110//32
f 115//29 122//29 116//29
f 118//33 121//33 119//33
f 118//28 120//28 117//28
f 121//27 122//27 115//27
f 119//31 115//31 117//31
f 122//32 121//32 118//32
usemtl mat15
f 123//34 124//34 125//34
f 126//35 127//36 128//37
f 124//38 128//38 125//38
f 129//39 123//40 130//39
f 130//41 123//41 128//41
f 129//42 126//42 131//42
f 132//43 130//43 127//43
f 123//34 131//34 124//34
f 126//35 132//44 127//36
f 124//38 126//38 128//38
f 129//39 131//40 123//40
f 125//41 128//41 123//41
f 127//41 130//41 128//41
f 124//42 131//42 126//42
f 129//42 132//42 126//42
f 132//43 129//43 130//43
usemtl mat17
f 83//45 84//45 85//45
f 86//46 87//47 88//46
f 88//48 84//48 89//48
f 86//49 85//50 90//49
f 87//51 85//51 84//51
f 83//52 88//52 89//52
f 91//53 92//53 93//53
f 94//54 95//54 96//54
f 96//55 92//56 97//56
f 94//57 93//57 98//57
f 95//58 93//58 92//58
f 91//59 96//60 97//59
f 83//45 89//45 84//45
f 86//46 90//47 87//47
f 88//48 87//48 84//48
f 86//49 83//50 85//50
f 87//51 90//51 85//51
f 83//52 86//52 88//52
f 91//53 97//53 92//53
f 94//54 98//54 95//54
f 96//55 95//61 92//56
f 94//57 91//57 93//57
f 95//58 98//58 93//58
f 91//59 94//60 96//60
usemtl mat7
f 1//33 2//33 3//33
f 1//62 4//62 5//62
f 6//63 7//63 4//63
f 8//27 9//27 7//27
f 10//64 9//64 11//64
f 12//65 13//65 10//65
f 12//29 14//29 15//66
f 16//67 14//67 17//67
f 18//68 19//68 16//69
f 18//28 20//28 21//28
f 22//70 23//70 20//71
f 3//72 23//72 24//73
f 7//31 21//31 23//31
f 16//32 6//32 3//32
f 25//74 26//74 27//74
f 28//63 29//63 25//63
f 30//27 31//27 28//27
f 30//75 32//75 33//75
f 34//76 32//76 35//65
f 34//29 36//29 37//29
f 38//77 39//77 36//77
f 40//78 39//78 41//78
f 40//28 42//28 43//28
f 44//79 42//79 45//79
f 46//72 47//72 44//73
f 46//33 26//33 48//33
f 33//31 39//31 29//31
f 38//32 35//32 27//32
f 1//33 5//80 2//33
f 1//62 6//62 4//62
f 6//63 8//63 7//63
f 8//27 11//27 9//27
f 10//64 13//64 9//64
f 12//65 15//65 13//65
f 12//29 17//29 14//29
f 16//67 19//81 14//67
f 18//68 21//78 19//68
f 18//28 22//28 20//28
f 22//70 24//82 23//70
f 3//72 2//83 23//72
f 23//31 2//84 5//31
f 5//31 4//85 7//31
f 7//31 9//31 14//31
f 13//31 15//31 14//31
f 14//31 19//85 21//31
f 21//31 20//86 23//31
f 23//31 5//31 7//31
f 9//31 13//31 14//31
f 14//31 21//31 7//31
f 3//32 24//87 22//88
f 22//88 18//32 3//32
f 16//32 17//89 12//32
f 12//32 10//88 16//32
f 11//32 8//90 6//32
f 6//32 1//89 3//32
f 3//32 18//32 16//32
f 16//32 10//88 11//32
f 11//32 6//32 16//32
f 25//74 29//74 26//74
f 28//63 31//63 29//63
f 30//27 33//27 31//27
f 30//75 35//64 32//75
f 34//76 37//76 32//76
f 34//29 38//66 36//29
f 38//77 41//77 39//77
f 40//78 43//78 39//78
f 40//28 45//28 42//28
f 44//79 47//79 42//79
f 46//72 48//83 47//72
f 46//33 27//33 26//33
f 48//91 26//85 29//31
f 29//31 31//92 33//31
f 33//31 32//93 37//84
f 37//84 36//31 33//31
f 39//31 43//92 42//31
f 42//31 47//94 48//91
f 48//91 29//31 39//31
f 33//31 36//31 39//31
f 39//31 42//31 48//91
f 27//32 46//87 44//95
f 44//95 45//32 27//32
f 40//32 41//90 38//32
f 38//32 34//87 35//32
f 35//32 30//96 28//96
f 28//96 25//97 27//32
f 27//32 45//32 40//32
f 40//32 38//32 27//32
f 35//32 28//96 27//32
