# Blender v2.78 (sub 0) OBJ File: ''
# www.blender.org
mtllib model.mtl
o model
v 0.210928 0.313463 -0.028658
v 0.210617 0.308565 0.021100
v 0.207056 -0.268632 -0.035746
v 0.207368 -0.263733 -0.085505
v -0.202928 -0.265877 -0.038039
v -0.199368 0.311319 0.018808
v -0.199056 0.316218 -0.030951
v -0.202617 -0.260979 -0.087797
v 0.104560 -0.267943 -0.036319
v 0.002064 -0.267255 -0.036892
v -0.100432 -0.266566 -0.037465
v -0.096872 0.310631 0.019381
v 0.005625 0.309942 0.019954
v 0.108121 0.309253 0.020527
v 0.186985 -0.244687 -0.083757
v 0.190312 0.294693 -0.030635
v 0.107231 0.164954 0.006315
v 0.106340 0.020655 -0.007896
v 0.105450 -0.123644 -0.022108
v -0.178674 0.297172 -0.032698
v -0.182001 -0.242208 -0.085820
v 0.186860 -0.246647 -0.063854
v 0.190187 0.292733 -0.010732
v -0.178798 0.295213 -0.012795
v -0.182125 -0.244168 -0.065917
v 0.168577 -0.219554 -0.061301
v 0.171572 0.265888 -0.013491
v -0.160516 0.268120 -0.015348
v -0.163510 -0.217323 -0.063158
v 0.002954 -0.122955 -0.022681
v -0.099542 -0.122267 -0.023254
v -0.098652 0.022032 -0.009042
v -0.097762 0.166331 0.005169
v 0.004734 0.165643 0.005742
v -0.055384 0.082797 -0.027693
v 0.054584 0.080814 -0.025931
v 0.039867 -0.265090 0.148369
v -0.070081 -0.263146 0.145606
v 0.045058 -0.265606 0.178822
v 0.054386 0.093816 0.001104
v -0.055583 0.095799 -0.000658
v -0.064910 -0.263624 0.177060
v 0.003844 0.021344 -0.008469
v -0.071538 -0.033453 -0.005298
v -0.070683 0.105158 0.008353
v -0.070627 0.106039 -0.000597
v -0.071482 -0.032571 -0.014248
v 0.069300 0.105098 0.000187
v 0.069244 0.104217 0.009136
v 0.068389 -0.034393 -0.004514
v 0.068445 -0.033512 -0.013464
v 0.183225 -0.248509 -0.073479
v 0.186598 0.298221 -0.019633
v 0.186499 0.296665 -0.003829
v 0.183126 -0.250065 -0.057674
v -0.173489 0.299084 -0.005842
v -0.173390 0.300640 -0.021646
v -0.176763 -0.246090 -0.075492
v -0.176862 -0.247646 -0.059687
vn 0.0062 0.0980 -0.9952
vn 1.0000 -0.0067 0.0056
vn -1.0000 0.0067 -0.0056
vn -0.0061 -0.9952 -0.0980
vn 0.0061 0.9952 0.0980
vn -0.0062 -0.0980 0.9952
vn 0.0118 -0.4510 -0.8924
vn 0.0172 -0.4498 -0.8930
vn 0.0186 -0.4495 -0.8931
vn -0.0064 0.4434 0.8963
vn -0.0180 -0.9998 -0.0128
vn -0.0177 -0.9998 -0.0117
vn -0.0176 -0.9998 -0.0115
vn 0.0232 0.9010 -0.4332
vn -0.9997 0.0180 -0.0160
vn 0.9997 -0.0180 0.0160
vn -0.9789 0.1231 0.1628
vn 0.9775 -0.1266 -0.1688
vn 0.0103 -0.4514 -0.8923
vn -0.0180 -0.9998 -0.0131
usemtl mat22
s 1
f 28//1 26//1 29//1
f 28//1 27//1 26//1
usemtl mat21
f 1//2 3//2 4//2
f 5//3 7//3 8//3
f 10//4 11//4 8//4
f 12//5 13//5 7//5
f 16//1 4//1 15//1
f 18//6 19//6 3//6
f 16//1 7//1 1//1
f 21//1 7//1 20//1
f 15//1 8//1 21//1
f 23//3 15//3 22//3
f 24//4 16//4 23//4
f 24//2 21//2 20//2
f 22//5 21//5 25//5
f 26//1 23//1 22//1
f 27//1 24//1 23//1
f 28//1 25//1 24//1
f 26//1 25//1 29//1
f 31//6 10//6 30//6
f 30//6 9//6 19//6
f 32//6 6//6 5//6
f 14//6 34//6 17//6
f 13//6 33//6 34//6
f 35//7 37//8 38//9
f 40//10 42//10 39//10
f 37//11 42//12 38//13
f 40//14 35//14 41//14
f 42//15 41//15 35//15
f 36//16 40//16 39//16
f 35//17 38//17 42//17
f 39//18 37//18 36//18
f 1//2 2//2 3//2
f 5//3 6//3 7//3
f 4//4 3//4 9//4
f 9//4 10//4 4//4
f 11//4 5//4 8//4
f 8//4 4//4 10//4
f 1//5 7//5 13//5
f 6//5 12//5 7//5
f 13//5 14//5 1//5
f 2//5 1//5 14//5
f 16//1 1//1 4//1
f 3//6 2//6 18//6
f 2//6 14//6 17//6
f 19//6 9//6 3//6
f 2//6 17//6 18//6
f 16//1 20//1 7//1
f 21//1 8//1 7//1
f 15//1 4//1 8//1
f 23//3 16//3 15//3
f 24//4 20//4 16//4
f 24//2 25//2 21//2
f 22//5 15//5 21//5
f 26//1 27//1 23//1
f 27//1 28//1 24//1
f 28//1 29//1 25//1
f 26//1 22//1 25//1
f 31//6 11//6 10//6
f 30//6 10//6 9//6
f 32//6 33//6 6//6
f 12//6 6//6 33//6
f 5//6 11//6 31//6
f 31//6 32//6 5//6
f 14//6 13//6 34//6
f 13//6 12//6 33//6
f 35//7 36//19 37//8
f 40//10 41//10 42//10
f 37//11 39//20 42//12
f 40//14 36//14 35//14
usemtl mat15
f 17//6 43//6 18//6
f 18//6 30//6 19//6
f 44//3 46//3 47//3
f 48//2 50//2 51//2
f 48//1 47//1 46//1
f 49//6 44//6 50//6
f 51//4 44//4 47//4
f 45//5 48//5 46//5
f 17//6 34//6 43//6
f 18//6 43//6 30//6
f 44//3 45//3 46//3
f 48//2 49//2 50//2
f 48//1 51//1 47//1
f 49//6 45//6 44//6
f 51//4 50//4 44//4
f 45//5 49//5 48//5
usemtl mat24
f 52//2 54//2 55//2
f 56//3 58//3 59//3
f 56//6 55//6 54//6
f 57//1 52//1 58//1
f 59//4 52//4 55//4
f 57//5 54//5 53//5
f 52//2 53//2 54//2
f 56//3 57//3 58//3
f 56//6 59//6 55//6
f 57//1 53//1 52//1
f 59//4 58//4 52//4
f 57//5 56//5 54//5
